# xmcd
# Copyright (C) 1995-1998 Ti Kan
#
# Track frame offsets:
#       150
#       17169
#       28308
#       54088
#       64808
#       72644
#       88290
#       104147
#       118407
#       127470
#       135216
#       147388
#       162524
#       175270
#       181990
#       190773
#       198884
#       224220
#       238422
#
# Disc length: 3318 seconds
#
# Revision: 0
# Processed by: cddbd v1.5.2PL0 Copyright (c) Steve Scherf et al.
# Submitted via: CD-Transfer v1.0
#
DISCID=3b0cf413
DTITLE=Vaselines, The - Eugene Kelly, Frances Mckee
DYEAR=92
DGENRE=
TTITLE0=Son Of A Gun
TTITLE1=Rory Rides Me Raw
TTITLE2=You Think You're A Man
TTITLE3=Dying For It
TTITLE4=Molly's Lips
TTITLE5=Teenage Superstar
TTITLE6=Jesus Wants Me For A Sunbeam
TTITLE7=Sex Sun (Amen)
TTITLE8=Slushy
TTITLE9=Monsterpussy
TTITLE10=Bitch
TTITLE11=No Hope
TTITLE12=Oliver Twisted
TTITLE13=Day I Was A Horse, The
TTITLE14=Dum-Dum
TTITLE15=Hairy
TTITLE16=Lovecraft
TTITLE17=Dying For It (The Blues)
TTITLE18=Let's Get Ugly
EXTD=
EXTT0=
EXTT1=
EXTT2=
EXTT3=
EXTT4=
EXTT5=
EXTT6=
EXTT7=
EXTT8=
EXTT9=
EXTT10=
EXTT11=
EXTT12=
EXTT13=
EXTT14=
EXTT15=
EXTT16=
EXTT17=
EXTT18=
PLAYORDER=
